<?xml version="1.0" encoding="utf-8"?>
<!DOCTYPE svg PUBLIC "-//W3C//DTD SVG 1.1//EN" "http://www.w3.org/Graphics/SVG/1.1/DTD/svg11.dtd">
<svg xmlns="http://www.w3.org/2000/svg" xmlns:xlink="http://www.w3.org/1999/xlink" version="1.1" baseProfile="full" width="81.92" height="81.92" viewBox="0 0 81.92 81.92" enable-background="new 0 0 81.92 81.92" xml:space="preserve">
	<rect x="0" y="0" fill="#FBE1FF" fill-opacity="1" stroke-width="0.32" stroke-linejoin="round" width="81.92" height="81.92"/>
	<path fill="#FFFF00" fill-opacity="1" stroke-width="0.32" stroke-linejoin="round" d="M 14.12,13.5L 68.38,13.5C 71.2077,13.5 73.5,15.7923 73.5,18.62L 73.5,54.88C 73.5,57.7077 71.2077,60 68.38,60L 14.12,60C 11.2923,60 9,57.7077 9,54.88L 9,18.62C 9,15.7923 11.2923,13.5 14.12,13.5 Z "/>
	<path fill="#000000" fill-opacity="1" stroke-width="0.32" stroke-linejoin="round" d="M 16.25,48.25C 17.5,42.5 21.5,31 24.25,25.25C 27,19.5 28.5,19.5 31,25C 33.5,30.5 37,41.5 38,47C 39,52.5 37.5,52.5 35.75,49.5C 34,46.5 32,40.5 30.25,37.5C 28.5,34.5 27,34.5 25,37.75C 23,41 20.5,47.5 18.5,50.75C 16.5,54 15,54 16.25,48.25 Z "/>
	<path fill="#000000" fill-opacity="1" stroke-width="0.32" stroke-linejoin="round" d="M 44.25,25C 43.5,30.5 43.5,41.5 44.25,47C 45,52.5 46.5,52.5 47.25,51.75C 48,51 48,49.5 50.25,49.25C 52.5,49 57,50 59.25,48C 61.5,46 61.5,41 60.5,38.25C 59.5,35.5 57.5,35 57.5,34.5C 57.5,34 59.5,33.5 60.5,30.75C 61.5,28 61.5,23 59.25,21.25C 57,19.5 52.5,21 50.25,21.25C 48,21.5 48,20.5 47.25,20C 46.5,19.5 45,19.5 44.25,25 Z "/>
	<path fill="#FFFF00" fill-opacity="1" stroke-width="0.32" stroke-linejoin="round" d="M 50.75,24.75C 52,23.5 54.5,23 55.75,24.25C 57,25.5 57,28.5 55.75,29.75C 54.5,31 52,30.5 50.75,29.25C 49.5,28 49.5,26 50.75,24.75 Z "/>
	<path fill="#FFFF00" fill-opacity="1" stroke-width="0.32" stroke-linejoin="round" d="M 50.75,39.25C 49.5,40.5 49.5,43.5 50.75,44.75C 52,46 54.5,45.5 55.75,44.25C 57,43 57,41 55.75,39.75C 54.5,38.5 52,38 50.75,39.25 Z "/>
	<path fill="#000000" fill-opacity="1" stroke-width="0.32" stroke-linejoin="round" d="M 60,52.5L 75,52.5C 75.8284,52.5 76.5,53.1716 76.5,54L 76.5,54C 76.5,54.8284 75.8284,55.5 75,55.5L 60,55.5C 59.1716,55.5 58.5,54.8284 58.5,54L 58.5,54C 58.5,53.1716 59.1716,52.5 60,52.5 Z "/>
	<path fill="#000000" fill-opacity="1" stroke-width="0.32" stroke-linejoin="round" d="M 67.5,54L 67.5,54C 68.3284,54 69,54.6716 69,55.5L 69,73.5C 69,74.3284 68.3284,75 67.5,75L 67.5,75C 66.6716,75 66,74.3284 66,73.5L 66,55.5C 66,54.6716 66.6716,54 67.5,54 Z "/>
	<path fill="#000000" fill-opacity="1" stroke-width="0.32" stroke-linejoin="round" d="M 60,72L 75,72C 75.8284,72 76.5,72.6716 76.5,73.5L 76.5,73.5C 76.5,74.3284 75.8284,75 75,75L 60,75C 59.1716,75 58.5,74.3284 58.5,73.5L 58.5,73.5C 58.5,72.6716 59.1716,72 60,72 Z "/>
</svg>
